<svg xmlns="http://www.w3.org/2000/svg" viewBox="0 0 100 100" width="100" height="100">
  <!-- Garnnøste -->
  <circle cx="50" cy="55" r="28" fill="#d4956a" />
  <ellipse cx="50" cy="55" rx="28" ry="20" fill="none" stroke="#c07850" stroke-width="1.5" />
  <path d="M 25 45 Q 50 30, 75 45" fill="none" stroke="#c07850" stroke-width="1.5" />
  <path d="M 25 55 Q 50 40, 75 55" fill="none" stroke="#c07850" stroke-width="1.5" />
  <path d="M 25 65 Q 50 50, 75 65" fill="none" stroke="#c07850" stroke-width="1.5" />
  <path d="M 30 38 Q 50 70, 70 38" fill="none" stroke="#b86840" stroke-width="1.2" />
  <path d="M 35 75 Q 50 45, 65 75" fill="none" stroke="#b86840" stroke-width="1.2" />
  <!-- Tråd som snor seg -->
  <path d="M 72 40 Q 80 25, 75 15 Q 70 5, 60 10" fill="none" stroke="#d4956a" stroke-width="2" stroke-linecap="round" />
  <!-- Strikkepinne 1 -->
  <line x1="15" y1="10" x2="55" y2="65" stroke="white" stroke-width="3.5" stroke-linecap="round" />
  <circle cx="15" cy="10" r="4" fill="white" />
  <!-- Strikkepinne 2 -->
  <line x1="85" y1="10" x2="45" y2="65" stroke="white" stroke-width="3.5" stroke-linecap="round" />
  <circle cx="85" cy="10" r="4" fill="white" />
</svg>
